<svg width="516" height="79" viewBox="0 0 516 79" fill="none" xmlns="http://www.w3.org/2000/svg">
<g filter="url(#filter0_d_92_825)">
<path d="M503.918 53.9999H495.239V26.1157H488.482V18.8601H495.239V7.90552H503.918V18.8601H510.746V26.1157H503.918V53.9999Z" stroke="black" stroke-dasharray="4 4"/>
<path d="M458.757 53.9998H450.079V18.86H458.117L458.828 23.4125C461.034 19.8558 465.302 17.793 470.068 17.793C478.888 17.793 483.441 23.2702 483.441 32.3753V53.9998H474.762V34.4382C474.762 28.5341 471.846 25.6888 467.365 25.6888C462.03 25.6888 458.757 29.3877 458.757 35.0784V53.9998Z" stroke="black" stroke-dasharray="4 4"/>
<path d="M426.204 54.9246C415.747 54.9246 408.421 47.3133 408.421 36.4299C408.421 25.4042 415.605 17.793 425.919 17.793C436.447 17.793 443.134 24.8352 443.134 35.7897V38.4216L416.672 38.4928C417.312 44.6814 420.584 47.8112 426.346 47.8112C431.112 47.8112 434.242 45.9618 435.238 42.6185H443.276C441.782 50.3009 435.38 54.9246 426.204 54.9246ZM425.991 24.9063C420.869 24.9063 417.739 27.6805 416.885 32.9444H434.527C434.527 28.1073 431.183 24.9063 425.991 24.9063Z" stroke="black" stroke-dasharray="4 4"/>
<path d="M356.225 53.9998H347.547V18.86H355.514L356.225 22.9857C358.004 20.0692 361.56 17.793 366.611 17.793C371.946 17.793 375.645 20.4249 377.494 24.4795C379.273 20.4249 383.398 17.793 388.733 17.793C397.269 17.793 401.964 22.9146 401.964 31.0238V53.9998H393.357V33.3C393.357 28.2496 390.654 25.6176 386.528 25.6176C382.331 25.6176 379.13 28.3207 379.13 34.0825V53.9998H370.452V33.2289C370.452 28.3207 367.82 25.6888 363.694 25.6888C359.569 25.6888 356.225 28.3918 356.225 34.0825V53.9998Z" stroke="black" stroke-dasharray="4 4"/>
<path d="M303.506 70.2894V18.86H311.544L312.113 24.195C314.247 20.1404 318.87 17.793 324.205 17.793C334.093 17.793 340.637 24.9774 340.637 36.0031C340.637 46.9576 334.662 54.9246 324.205 54.9246C318.942 54.9246 314.389 52.8617 312.184 49.305V70.2894H303.506ZM312.255 36.4299C312.255 42.7608 316.167 47.0999 322.143 47.0999C328.26 47.0999 331.888 42.6896 331.888 36.4299C331.888 30.1702 328.26 25.6888 322.143 25.6888C316.167 25.6888 312.255 30.099 312.255 36.4299Z" stroke="black" stroke-dasharray="4 4"/>
<path d="M259.068 36.3587C259.068 25.4041 266.964 17.864 277.848 17.864C288.731 17.864 296.627 25.4041 296.627 36.3587C296.627 47.3132 288.731 54.8533 277.848 54.8533C266.964 54.8533 259.068 47.3132 259.068 36.3587ZM267.747 36.3587C267.747 42.7607 271.872 47.0998 277.848 47.0998C283.823 47.0998 287.948 42.7607 287.948 36.3587C287.948 29.9567 283.823 25.6175 277.848 25.6175C271.872 25.6175 267.747 29.9567 267.747 36.3587Z" stroke="black" stroke-dasharray="4 4"/>
<path d="M252.028 53.9999H243.421V1.07666H252.028V53.9999Z" stroke="black" stroke-dasharray="4 4"/>
<path d="M219.403 54.9246C208.947 54.9246 201.62 47.3133 201.62 36.4299C201.62 25.4042 208.804 17.793 219.119 17.793C229.646 17.793 236.333 24.8352 236.333 35.7897V38.4216L209.871 38.4928C210.512 44.6814 213.784 47.8112 219.545 47.8112C224.311 47.8112 227.441 45.9618 228.437 42.6185H236.475C234.981 50.3009 228.579 54.9246 219.403 54.9246ZM219.19 24.9063C214.068 24.9063 210.938 27.6805 210.085 32.9444H227.726C227.726 28.1073 224.383 24.9063 219.19 24.9063Z" stroke="black" stroke-dasharray="4 4"/>
<path d="M177.241 54L163.299 18.8601H172.546L178.664 35.0074C180.158 39.2042 181.367 42.832 181.794 44.7526C182.292 42.5475 183.572 38.8486 185.066 35.0074L191.468 18.8601H200.431L185.777 54H177.241Z" stroke="black" stroke-dasharray="4 4"/>
<path d="M144.935 54.9246C134.479 54.9246 127.152 47.3133 127.152 36.4299C127.152 25.4042 134.337 17.793 144.651 17.793C155.179 17.793 161.865 24.8352 161.865 35.7897V38.4216L135.404 38.4928C136.044 44.6814 139.316 47.8112 145.078 47.8112C149.844 47.8112 152.973 45.9618 153.969 42.6185H162.007C160.514 50.3009 154.112 54.9246 144.935 54.9246ZM144.722 24.9063C139.6 24.9063 136.471 27.6805 135.617 32.9444H153.258C153.258 28.1073 149.915 24.9063 144.722 24.9063Z" stroke="black" stroke-dasharray="4 4"/>
<path d="M99.6135 54.9246C89.4415 54.9246 83.1106 47.4556 83.1106 36.5722C83.1106 25.6177 89.5126 17.793 100.111 17.793C105.02 17.793 109.359 19.8559 111.564 23.3414V1.07666H120.171V53.9999H112.204L111.635 48.5226C109.501 52.5772 104.949 54.9246 99.6135 54.9246ZM101.534 46.9577C107.58 46.9577 111.493 42.6185 111.493 36.2877C111.493 29.9568 107.58 25.5465 101.534 25.5465C95.4878 25.5465 91.7889 30.0279 91.7889 36.2877C91.7889 42.5474 95.4878 46.9577 101.534 46.9577Z" stroke="black" stroke-dasharray="4 4"/>
<path d="M32.7911 53.9998H24.1128V18.86H32.1509L32.8622 23.4125C35.0673 19.8558 39.3353 17.793 44.1013 17.793C52.9218 17.793 57.4743 23.2702 57.4743 32.3753V53.9998H48.7961V34.4382C48.7961 28.5341 45.8796 25.6888 41.3982 25.6888C36.0632 25.6888 32.7911 29.3877 32.7911 35.0784V53.9998Z" stroke="black" stroke-dasharray="4 4"/>
<path d="M13.8668 2.00146V53.9999H4.76172V2.00146H13.8668Z" stroke="black" stroke-dasharray="4 4"/>
</g>
<defs>
<filter id="filter0_d_92_825" x="0.261719" y="0.57666" width="514.985" height="78.2126" filterUnits="userSpaceOnUse" color-interpolation-filters="sRGB">
<feFlood flood-opacity="0" result="BackgroundImageFix"/>
<feColorMatrix in="SourceAlpha" type="matrix" values="0 0 0 0 0 0 0 0 0 0 0 0 0 0 0 0 0 0 127 0" result="hardAlpha"/>
<feOffset dy="4"/>
<feGaussianBlur stdDeviation="2"/>
<feComposite in2="hardAlpha" operator="out"/>
<feColorMatrix type="matrix" values="0 0 0 0 0 0 0 0 0 0 0 0 0 0 0 0 0 0 0.25 0"/>
<feBlend mode="normal" in2="BackgroundImageFix" result="effect1_dropShadow_92_825"/>
<feBlend mode="normal" in="SourceGraphic" in2="effect1_dropShadow_92_825" result="shape"/>
</filter>
</defs>
</svg>
