<svg width="112" height="112" viewBox="0 0 112 112" fill="none" xmlns="http://www.w3.org/2000/svg">
<rect width="112" height="112" rx="29.4795" fill="#FF8246"/>
<path fill-rule="evenodd" clip-rule="evenodd" d="M32.7516 30.4096H27.6267V20.1599H84.0001V79.0957L71.1879 91.9078H27.6267V86.7829V76.5332H32.7516V86.7829H68.6255L78.8752 76.5332V25.2848H32.7516V30.4096ZM68.6255 86.7829L78.8752 76.5332H68.6255L68.6255 86.7829ZM32.7516 71.4084H27.6267V50.909V35.5344H32.7516V40.5137C35.6885 37.6876 39.9263 35.5344 45.5637 35.5344C57.8633 35.5344 58.3758 45.7841 58.3758 50.909V71.4084H53.251V50.909C53.251 50.7272 53.2524 50.5358 53.2539 50.3363C53.2808 46.7848 53.3272 40.6593 45.5637 40.6593C37.3639 40.6593 32.7516 47.4924 32.7516 50.909V71.4084Z" fill="black"/>
</svg>
